<mxfile host="app.diagrams.net" modified="2020-11-06T20:12:20.707Z" agent="5.0 (X11)" etag="YCK12YwkWNYpZ31Om--m" version="13.9.2" type="github">
  <diagram id="SNSVXGH9BnDzPArwe3A-" name="Page-1">
    <mxGraphModel dx="810" dy="877" grid="1" gridSize="10" guides="1" tooltips="1" connect="1" arrows="1" fold="1" page="1" pageScale="1" pageWidth="850" pageHeight="1100" math="0" shadow="0">
      <root>
        <mxCell id="0" />
        <mxCell id="1" parent="0" />
        <mxCell id="q5w48iADYFtfR3rQ_fD2-6" value="" style="group" parent="1" vertex="1" connectable="0">
          <mxGeometry x="290" y="510" width="220" height="150" as="geometry" />
        </mxCell>
        <mxCell id="q5w48iADYFtfR3rQ_fD2-1" value="" style="rounded=0;whiteSpace=wrap;html=1;" parent="q5w48iADYFtfR3rQ_fD2-6" vertex="1">
          <mxGeometry y="90" width="220" height="60" as="geometry" />
        </mxCell>
        <mxCell id="q5w48iADYFtfR3rQ_fD2-2" value="" style="rounded=0;whiteSpace=wrap;html=1;" parent="q5w48iADYFtfR3rQ_fD2-6" vertex="1">
          <mxGeometry x="170" width="50" height="90" as="geometry" />
        </mxCell>
        <mxCell id="q5w48iADYFtfR3rQ_fD2-4" value="" style="rounded=0;whiteSpace=wrap;html=1;" parent="q5w48iADYFtfR3rQ_fD2-6" vertex="1">
          <mxGeometry width="90" height="90" as="geometry" />
        </mxCell>
        <mxCell id="57GNbXsHqVFu7rd3hSPP-3" value="" style="rounded=0;whiteSpace=wrap;html=1;" parent="1" vertex="1">
          <mxGeometry x="380" y="680" width="60" height="150" as="geometry" />
        </mxCell>
      </root>
    </mxGraphModel>
  </diagram>
</mxfile>
